<svg class="icon" xmlns="http://www.w3.org/2000/svg" width="24" height="24" viewBox="0 0 24 24" fill="none" stroke="currentColor" stroke-width="1.8" stroke-linecap="round" stroke-linejoin="round" aria-hidden="true" focusable="false"><path d="M10 3.5h4l.6 2.1 1.9.8 1.9-1.1 2.8 2.8-1.1 1.9.8 1.9 2.1.6v4l-2.1.6-.8 1.9 1.1 1.9-2.8 2.8-1.9-1.1-1.9.8-.6 2.1h-4l-.6-2.1-1.9-.8-1.9 1.1-2.8-2.8 1.1-1.9-.8-1.9L1 15.5v-4l2.1-.6.8-1.9-1.1-1.9 2.8-2.8 1.9 1.1 1.9-.8z" transform="translate(0 -1.5) scale(.92) translate(1 2)"/><circle cx="12" cy="12" r="3.2"/></svg>
